<svg width="59" height="30" viewBox="0 0 59 30" fill="none" xmlns="http://www.w3.org/2000/svg">
<path d="M25.8875 25.767L25.8647 24.0414H26.1382L29.9664 19.9992H31.6299L27.551 24.2778H27.437L25.8875 25.767ZM24.6342 29.0764L24.6342 16.9613H25.9787L25.9786 29.0764H24.6342ZM30.1943 29.0764L26.7762 24.5851L27.7333 23.6159L31.9033 29.0764H30.1943Z" fill="black"/>
<path d="M20.1461 28.8975C19.3201 28.8975 18.6088 28.7024 18.0122 28.3124C17.4156 27.9223 16.9567 27.385 16.6354 26.7004C16.3142 26.0159 16.1536 25.2338 16.1536 24.3543C16.1536 23.4594 16.318 22.6697 16.6469 21.9852C16.9796 21.2968 17.4424 20.7595 18.0351 20.3732C18.6317 19.9832 19.3277 19.7881 20.1232 19.7881C20.7427 19.7881 21.301 19.9029 21.7982 20.1323C22.2953 20.3618 22.7026 20.683 23.02 21.096C23.3374 21.509 23.5344 21.9909 23.6109 22.5416H22.2571C22.1538 22.14 21.9244 21.7844 21.5687 21.4746C21.2169 21.161 20.7427 21.0042 20.1461 21.0042C19.6184 21.0042 19.1556 21.1419 18.7579 21.4173C18.364 21.6888 18.0562 22.0731 17.8343 22.5703C17.6164 23.0636 17.5074 23.643 17.5074 24.3084C17.5074 24.9891 17.6145 25.5819 17.8286 26.0866C18.0466 26.5914 18.3525 26.9834 18.7464 27.2626C19.1441 27.5418 19.6107 27.6814 20.1461 27.6814C20.4979 27.6814 20.8173 27.6202 21.1041 27.4978C21.3909 27.3754 21.6337 27.1995 21.8326 26.97C22.0314 26.7406 22.1729 26.4652 22.2571 26.144H23.6109C23.5344 26.6641 23.3451 27.1326 23.043 27.5494C22.7447 27.9624 22.3489 28.2913 21.8555 28.5361C21.366 28.777 20.7962 28.8975 20.1461 28.8975Z" fill="black"/>
<path d="M12.0693 28.8975C11.2738 28.8975 10.5759 28.7082 9.97552 28.3296C9.37894 27.951 8.91238 27.4213 8.57585 26.7406C8.24314 26.0599 8.07678 25.2644 8.07678 24.3543C8.07678 23.4365 8.24314 22.6353 8.57585 21.9507C8.91238 21.2662 9.37894 20.7346 9.97552 20.356C10.5759 19.9774 11.2738 19.7881 12.0693 19.7881C12.8647 19.7881 13.5607 19.9774 14.1573 20.356C14.7577 20.7346 15.2243 21.2662 15.557 21.9507C15.8935 22.6353 16.0618 23.4365 16.0618 24.3543C16.0618 25.2644 15.8935 26.0599 15.557 26.7406C15.2243 27.4213 14.7577 27.951 14.1573 28.3296C13.5607 28.7082 12.8647 28.8975 12.0693 28.8975ZM12.0693 27.6814C12.6735 27.6814 13.1707 27.5265 13.5607 27.2167C13.9508 26.9069 14.2395 26.4997 14.4269 25.9949C14.6143 25.4901 14.708 24.9432 14.708 24.3543C14.708 23.7653 14.6143 23.2166 14.4269 22.7079C14.2395 22.1993 13.9508 21.7882 13.5607 21.4746C13.1707 21.161 12.6735 21.0042 12.0693 21.0042C11.4651 21.0042 10.9679 21.161 10.5778 21.4746C10.1878 21.7882 9.89903 22.1993 9.71164 22.7079C9.52426 23.2166 9.43056 23.7653 9.43056 24.3543C9.43056 24.9432 9.52426 25.4901 9.71164 25.9949C9.89903 26.4997 10.1878 26.9069 10.5778 27.2167C10.9679 27.5265 11.4651 27.6814 12.0693 27.6814Z" fill="black"/>
<path d="M0 29.0764V16.9613H4.06108C4.87027 16.9613 5.53767 17.1072 6.06326 17.399C6.58886 17.6869 6.98022 18.0754 7.23735 18.5644C7.49447 19.0495 7.62304 19.5878 7.62304 20.1794C7.62304 20.6999 7.53418 21.1298 7.35646 21.469C7.18252 21.8081 6.95186 22.0763 6.66449 22.2735C6.38089 22.4707 6.07272 22.6166 5.73997 22.7112V22.8296C6.0954 22.8532 6.45273 22.9834 6.81195 23.22C7.17118 23.4566 7.47179 23.7958 7.71379 24.2375C7.95579 24.6792 8.07679 25.2195 8.07679 25.8583C8.07679 26.4657 7.94444 27.0119 7.67976 27.497C7.41507 27.9821 6.99724 28.3666 6.42627 28.6505C5.85529 28.9345 5.11227 29.0764 4.19721 29.0764H0ZM1.40663 27.775H4.19721C5.11606 27.775 5.76832 27.5897 6.15401 27.2189C6.54348 26.8443 6.73822 26.3908 6.73822 25.8583C6.73822 25.4482 6.63802 25.0696 6.43761 24.7225C6.2372 24.3716 5.95172 24.0916 5.58115 23.8825C5.21059 23.6696 4.77196 23.5631 4.26527 23.5631H1.40663V27.775ZM1.40663 22.2853H4.01571C4.43921 22.2853 4.82112 22.1986 5.16143 22.025C5.50553 21.8515 5.77778 21.607 5.97818 21.2915C6.18237 20.976 6.28447 20.6053 6.28447 20.1794C6.28447 19.6469 6.10675 19.1954 5.75131 18.8247C5.39587 18.45 4.83246 18.2627 4.06108 18.2627H1.40663V22.2853Z" fill="black"/>
<path d="M48.273 7.25018H50.6077V8.03893C51.2282 7.68662 51.8198 7.43948 52.3824 7.29751C52.9503 7.15553 53.505 7.08455 54.0467 7.08455C54.7565 7.08455 55.4138 7.18971 56.0185 7.40005C56.6232 7.60512 57.1464 7.91273 57.5881 8.32288C58.0298 8.73303 58.3743 9.24572 58.6214 9.86094C58.8738 10.4709 59 11.1782 59 11.9827V16.5574H56.6732V12.3613C56.6732 11.8512 56.5996 11.3964 56.4523 10.9967C56.3104 10.5919 56.1027 10.2527 55.8292 9.97925C55.5611 9.70056 55.2324 9.49023 54.8433 9.34826C54.4594 9.20102 54.0282 9.12741 53.5497 9.12741C53.2973 9.12741 53.0371 9.1537 52.7689 9.20628C52.506 9.25886 52.2457 9.33511 51.988 9.43502C51.7356 9.52967 51.4911 9.65061 51.2545 9.79784C51.0179 9.93982 50.8023 10.1028 50.6077 10.2869V16.5574H48.273V7.25018Z" fill="black"/>
<path d="M44.9161 5.9803C44.6847 5.9803 44.4744 5.94875 44.2851 5.88565C44.1011 5.81729 43.9433 5.7279 43.8119 5.61747C43.6804 5.50179 43.5779 5.37033 43.5043 5.2231C43.4359 5.07061 43.4017 4.91023 43.4017 4.74196C43.4017 4.56844 43.4359 4.40806 43.5043 4.26082C43.5779 4.10833 43.6804 3.97687 43.8119 3.86645C43.9433 3.75602 44.1011 3.66926 44.2851 3.60616C44.4744 3.5378 44.6847 3.50362 44.9161 3.50362C45.1527 3.50362 45.3631 3.5378 45.5471 3.60616C45.7364 3.66926 45.8968 3.75602 46.0283 3.86645C46.1597 3.97687 46.2596 4.10833 46.328 4.26082C46.4016 4.40806 46.4384 4.56844 46.4384 4.74196C46.4384 4.91023 46.4016 5.07061 46.328 5.2231C46.2596 5.37033 46.1597 5.50179 46.0283 5.61747C45.8968 5.7279 45.7364 5.81729 45.5471 5.88565C45.3631 5.94875 45.1527 5.9803 44.9161 5.9803ZM43.7488 7.25018H46.0835V16.5574H43.7488V7.25018Z" fill="black"/>
<path d="M37.8363 9.0012H35.5883V7.25018H37.8363V4.35547H40.171V7.25018H42.4189V9.0012H40.171V16.5574H37.8363V9.0012Z" fill="black"/>
<path d="M29.1317 7.25018H31.4664V8.59106C31.9817 8.2072 32.5259 7.87592 33.0991 7.59723C33.6722 7.31854 34.2428 7.10558 34.8107 6.95835L35.4969 9.09585C34.5977 9.18525 33.8063 9.38769 33.1227 9.70319C32.4444 10.0134 31.8923 10.4525 31.4664 11.0204V16.5574H29.1317V7.25018Z" fill="black"/>
<path d="M16.1536 13.404C16.1536 12.957 16.2509 12.5495 16.4454 12.1814C16.64 11.8134 16.9318 11.4979 17.3209 11.2349C17.7101 10.9668 18.1938 10.7617 18.7722 10.6197C19.3559 10.4725 20.0342 10.3989 20.8072 10.3989C21.3804 10.3989 21.9825 10.4409 22.6134 10.5251C23.2497 10.6092 23.9044 10.738 24.5774 10.9116C24.5511 10.6171 24.4618 10.3463 24.3093 10.0991C24.1568 9.84674 23.9438 9.63115 23.6704 9.45237C23.4022 9.26833 23.0762 9.12635 22.6923 9.02644C22.3137 8.92654 21.8825 8.87658 21.3988 8.87658C21.1359 8.87658 20.8467 8.89236 20.5312 8.92391C20.2157 8.95546 19.8896 9.00278 19.5531 9.06588C19.2166 9.12898 18.8827 9.20786 18.5514 9.30251C18.2254 9.39716 17.9204 9.51021 17.6364 9.64167L16.9266 7.72501C17.2789 7.59881 17.6548 7.48313 18.0545 7.37796C18.4594 7.27279 18.8721 7.1834 19.2928 7.10978C19.7135 7.03091 20.1341 6.97044 20.5548 6.92837C20.9755 6.88631 21.383 6.86527 21.7774 6.86527C23.5179 6.86527 24.8114 7.3096 25.658 8.19826C26.5046 9.08692 26.9279 10.4488 26.9279 12.284L26.9373 16.5038H24.6027L24.5932 15.4626C24.3513 15.6046 24.0858 15.7387 23.7966 15.8649C23.5126 15.9911 23.2024 16.1015 22.8658 16.1962C22.5293 16.2908 22.1665 16.3644 21.7774 16.417C21.3935 16.4749 20.986 16.5038 20.5548 16.5038C19.8292 16.5038 19.1903 16.4249 18.6382 16.2672C18.0913 16.1094 17.6338 15.8912 17.2657 15.6125C16.8976 15.3338 16.619 15.0078 16.4297 14.6344C16.2456 14.2559 16.1536 13.8457 16.1536 13.404ZM18.6145 13.3251C18.6145 13.4776 18.6539 13.6249 18.7328 13.7668C18.8117 13.9035 18.9379 14.0271 19.1114 14.1375C19.2849 14.2427 19.5058 14.3295 19.774 14.3978C20.0474 14.4609 20.376 14.4925 20.7599 14.4925C21.17 14.4925 21.567 14.4557 21.9509 14.3821C22.3348 14.3084 22.6923 14.2112 23.0236 14.0902C23.3549 13.9693 23.6546 13.8299 23.9228 13.6722C24.1909 13.5144 24.4144 13.3514 24.5932 13.1832V12.773C24.2356 12.6731 23.8807 12.589 23.5284 12.5206C23.1813 12.4522 22.8474 12.3997 22.5267 12.3629C22.2112 12.3208 21.9115 12.2919 21.6275 12.2761C21.3488 12.2603 21.1043 12.2524 20.894 12.2524C20.4575 12.2524 20.0947 12.2813 19.8055 12.3392C19.5163 12.397 19.2823 12.4759 19.1035 12.5758C18.9247 12.6705 18.7985 12.7835 18.7249 12.915C18.6513 13.0464 18.6145 13.1832 18.6145 13.3251Z" fill="black"/>
<path d="M1.52588e-05 0H2.53142L7.06719 6.08044L11.603 0H14.1344V16.6732H11.603V4.68301L7.06719 10.5181L2.53142 4.68301L2.53144 16.6732H3.20998e-05L1.52588e-05 0Z" fill="black"/>
<circle cx="45.0281" cy="3.0288" r="3.0288" fill="#41E9A4"/>
</svg>
